This is from PBS with hardcoded English subs where neeeded. They are from the original broadcast. 					

												

												

Enjoy and please share.										

												

												

TTLTTLTTLTTLTTLTTLTTLTTLTTLTTLTTLTTLTTLTTLTTLTTLTTLTTLTTL					

												

												

P.O.V._Reportero_720p.HDTV.x264_2013-01-13_TTL.mkv
Format                           : Matroska
File size                        : 1.30 GiB
Duration                         : 51mn 36s
Overall bit rate                 : 3 602 Kbps
Writing application              : HandBrake 0.9.5
Writing library                  : libmkv 0.6.4.1

Video
ID                               : 1
Format                           : AVC
Format/Info                      : Advanced Video Codec
Format profile                   : High@L3.1
Format settings, CABAC           : Yes
Format settings, ReFrames        : 4 frames
Muxing mode                      : Container profile=Unknown@3.1
Codec ID                         : V_MPEG4/ISO/AVC
Duration                         : 51mn 56s
Bit rate                         : 3 307 Kbps
Nominal bit rate                 : 3 374 Kbps
Width                            : 1 280 pixels
Height                           : 720 pixels
Display aspect ratio             : 16:9
Frame rate mode                  : Variable
Frame rate                       : 27.176 fps
Resolution                       : 8 bits
Colorimetry                      : 4:2:0
Scan type                        : Progressive
Bits/(Pixel*Frame)               : 0.132
Stream size                      : 1.20 GiB (92%)
Writing library                  : x264 core 112

Audio                            : Spanish
ID                               : 2
Format                           : AC-3
Format/Info                      : Audio Coding 3
Codec ID                         : A_AC3
Duration                         : 51mn 36s
Bit rate mode                    : Constant
Bit rate                         : 224 Kbps
Channel(s)                       : 2 channels
Channel positions                : L R
Sampling rate                    : 48.0 KHz
Stream size                      : 82.7 MiB (6%)
Subtitle Hardcoded               : English
